<?xml version="1.0" standalone="no"?>
<!DOCTYPE svg PUBLIC "-//W3C//DTD SVG 20010904//EN"
 "http://www.w3.org/TR/2001/REC-SVG-20010904/DTD/svg10.dtd">
<svg version="1.0" xmlns="http://www.w3.org/2000/svg"
 width="980.000000pt" height="584.000000pt" viewBox="0 0 980.000000 584.000000"
 preserveAspectRatio="xMidYMid meet">

<g transform="translate(0.000000,584.000000) scale(0.100000,-0.100000)"
fill="#000000" stroke="none">
<path d="M5952 5776 c-59 -63 -67 -84 -52 -149 24 -109 62 -128 277 -135 83
-2 157 -8 164 -12 9 -6 -17 -94 -102 -347 l-114 -338 -1433 -3 -1433 -2 7 22
c4 13 34 82 67 153 79 173 117 278 117 322 0 56 -40 106 -109 137 -123 55
-878 246 -973 246 -91 0 -144 -67 -136 -171 8 -110 33 -124 388 -220 222 -61
412 -118 423 -128 11 -10 0 -37 -218 -531 -225 -510 -335 -779 -335 -816 0
-41 36 -107 69 -127 40 -23 117 -22 158 2 43 27 67 72 220 406 73 159 136 291
141 293 16 5 80 -75 279 -349 315 -435 346 -468 418 -455 79 15 152 105 141
174 -7 45 -71 149 -267 432 -93 134 -169 247 -169 251 0 20 2485 18 2504 -2 4
-3 -31 -123 -77 -266 l-84 -260 34 -46 c45 -61 89 -87 146 -87 34 0 53 6 77
26 45 38 45 38 192 437 5 15 14 27 19 27 4 0 90 -123 190 -272 202 -302 311
-453 339 -468 31 -16 100 -12 134 10 34 21 70 77 80 125 8 38 -55 153 -271
494 -86 135 -197 312 -246 393 l-90 147 118 348 c65 191 127 372 137 401 l19
52 148 0 c195 0 247 10 288 54 37 40 57 102 47 151 -9 50 -70 114 -119 125
-22 5 -270 10 -551 10 l-511 0 -51 -54z"/>
<path d="M4340 4061 c-59 -31 -73 -68 -81 -210 -4 -69 -7 -127 -8 -127 -1 -1
-23 -16 -51 -34 -69 -44 -189 -175 -223 -242 -26 -51 -29 -71 -37 -210 -12
-206 -12 -2047 0 -2171 12 -126 54 -210 150 -306 102 -102 129 -112 339 -123
223 -13 1047 -4 1116 11 63 15 164 89 223 165 70 91 92 149 102 278 12 143 12
1872 0 2115 -8 179 -9 183 -41 243 -40 76 -147 192 -216 237 -31 20 -55 43
-57 56 -3 12 -7 72 -9 132 -4 125 -13 148 -76 183 -70 40 -169 24 -198 -32
-10 -19 -20 -79 -27 -153 l-10 -123 -331 0 -332 0 -11 127 c-12 135 -23 165
-73 190 -36 19 -109 16 -149 -6z m1171 -714 l46 -52 7 -1101 7 -1101 -56 -67
-56 -66 -554 0 -553 0 -56 64 -56 63 0 1093 0 1092 52 64 51 64 561 -1 561 0
46 -52z"/>
<path d="M4491 3014 c-43 -36 -63 -79 -63 -134 0 -50 9 -75 49 -127 l24 -33
404 0 404 0 24 33 c57 75 64 138 25 208 -42 75 -36 74 -459 77 l-376 3 -32
-27z"/>
<path d="M4535 2343 c-37 -10 -73 -43 -94 -86 -37 -77 -25 -136 42 -204 l41
-43 166 1 c342 1 593 14 626 32 29 15 52 50 69 105 13 43 -13 116 -56 158
l-40 39 -367 2 c-202 0 -376 -1 -387 -4z"/>
<path d="M4467 1598 c-60 -88 -57 -148 9 -235 l25 -33 406 2 405 3 30 41 c56
78 55 149 -5 231 l-30 43 -402 0 -403 0 -35 -52z"/>
<path d="M1495 3655 c-631 -99 -1188 -583 -1395 -1213 -136 -416 -131 -856 17
-1252 225 -604 698 -1018 1313 -1152 92 -20 133 -22 330 -22 195 0 239 3 330
22 703 151 1230 697 1387 1439 25 117 27 148 27 353 1 241 -5 295 -55 488
-162 632 -655 1141 -1257 1298 -194 50 -514 68 -697 39z m374 -326 c578 -54
1066 -451 1256 -1023 48 -143 55 -201 55 -466 0 -265 -7 -323 -55 -466 -131
-393 -425 -729 -786 -898 -208 -97 -377 -130 -624 -123 -147 4 -186 9 -285 35
-196 51 -355 126 -508 239 -329 244 -540 612 -593 1030 -16 129 -6 369 21 495
41 196 135 407 253 575 71 99 212 246 305 317 211 161 470 262 727 285 49 5
97 9 105 10 8 0 66 -4 129 -10z"/>
<path d="M2165 3036 c-16 -7 -38 -22 -47 -33 -36 -39 -324 -670 -443 -967 -70
-175 -79 -221 -52 -273 18 -35 67 -78 98 -88 31 -10 83 3 115 27 30 24 187
338 359 718 156 346 188 428 182 473 -7 53 -49 113 -97 137 -45 23 -73 25
-115 6z"/>
<path d="M7795 3655 c-719 -112 -1304 -689 -1461 -1440 -35 -166 -43 -414 -20
-612 25 -218 69 -367 167 -573 247 -516 696 -876 1234 -990 129 -28 393 -38
532 -20 302 37 587 151 826 331 125 94 299 272 389 399 91 128 207 364 257
523 70 223 76 267 75 577 0 247 -2 285 -22 370 -99 424 -318 791 -627 1049
-337 280 -686 403 -1137 400 -73 -1 -169 -7 -213 -14z m360 -325 c686 -56
1237 -602 1325 -1314 17 -130 8 -351 -19 -479 -63 -299 -208 -566 -422 -777
-207 -204 -489 -351 -759 -395 -123 -20 -340 -19 -461 1 -516 86 -960 477
-1129 994 -107 326 -102 673 15 1000 190 531 689 925 1225 970 47 4 90 8 95 8
6 1 64 -3 130 -8z"/>
<path d="M7388 2897 c-73 -56 -85 -111 -48 -211 40 -105 188 -323 243 -357 45
-27 115 -25 157 4 38 26 70 80 70 119 0 92 -194 408 -281 457 -53 30 -90 27
-141 -12z"/>
<path d="M8261 2579 c-74 -38 -603 -572 -683 -690 -52 -77 -42 -166 26 -229
26 -24 35 -25 189 -31 89 -3 164 -7 167 -8 2 0 -61 -67 -142 -148 -80 -82
-153 -162 -162 -180 -50 -99 28 -243 131 -243 54 0 106 39 343 261 253 236
373 358 405 413 49 84 23 178 -61 221 -33 17 -64 20 -207 23 l-168 4 98 102
c119 122 229 250 250 290 30 58 -5 174 -63 208 -50 29 -76 30 -123 7z"/>
</g>
</svg>
